# xmcd
#
# Track frame offsets:
#	150
#	7335
#	38937
#	51842
#	63007
#	115653
#	147716
#	160862
#	184962
#	217099
#	228553
#	235665
#	284905
#	294858
#	330562
#	338899
#
# Disc length: 4784 seconds
#
# Revision: 1
# Processed by: cddbd v1.5.2PL0 Copyright (c) Steve Scherf et al.
# Submitted via: EasyCDDAExtractor 7.1.0.1
#
DISCID=fa12ae10
DTITLE=The Doors - The Movie
DYEAR=1900
DGENRE=
TTITLE0=The Movie
TTITLE1=Riders On The Storm
TTITLE2=Love Streets 
TTITLE3=Break On Through
TTITLE4=The End
TTITLE5=Light My Fire
TTITLE6=Ghost Song
TTITLE7=Roadhouse Blues
TTITLE8=Heroin
TTITLE9=Carmina Burana - Introduction
TTITLE10=Stoned Immaculate
TTITLE11=When The Music's Over
TTITLE12=The Severed Garden (Albinoni - Adagio)
TTITLE13=L.A. Woman
TTITLE14=Whysky Bar
TTITLE15=Five To One
EXTD=
EXTT0=
EXTT1=
EXTT2=
EXTT3=
EXTT4=
EXTT5=
EXTT6=
EXTT7=
EXTT8=
EXTT9=
EXTT10=
EXTT11=
EXTT12=
EXTT13=
EXTT14=
EXTT15=
PLAYORDER=
